<mxfile host="app.diagrams.net" modified="2022-03-09T15:24:31.123Z" agent="5.0 (Macintosh; Intel Mac OS X 10_15_7) AppleWebKit/537.36 (KHTML, like Gecko) Chrome/98.0.4758.109 Safari/537.36" etag="XbSfZCg9KGtjsheKDe6H" version="16.6.6" type="github" pages="2">
  <diagram id="JrA7ryfGbsVBiMZWuKP9" name="Page-1">
    <mxGraphModel dx="2242" dy="889" grid="1" gridSize="10" guides="1" tooltips="1" connect="1" arrows="1" fold="1" page="1" pageScale="1" pageWidth="850" pageHeight="1100" math="0" shadow="0">
      <root>
        <mxCell id="0" />
        <mxCell id="1" parent="0" />
        <mxCell id="DcB7vhvRTJopXNtkEEWn-2" style="edgeStyle=orthogonalEdgeStyle;rounded=0;orthogonalLoop=1;jettySize=auto;html=1;exitX=0;exitY=0.75;exitDx=0;exitDy=0;entryX=0;entryY=0.75;entryDx=0;entryDy=0;" parent="1" target="DcB7vhvRTJopXNtkEEWn-1" edge="1">
          <mxGeometry relative="1" as="geometry">
            <mxPoint x="230" y="350" as="sourcePoint" />
          </mxGeometry>
        </mxCell>
        <mxCell id="DcB7vhvRTJopXNtkEEWn-3" style="edgeStyle=orthogonalEdgeStyle;rounded=0;orthogonalLoop=1;jettySize=auto;html=1;entryX=0;entryY=0.5;entryDx=0;entryDy=0;" parent="1" target="DcB7vhvRTJopXNtkEEWn-1" edge="1">
          <mxGeometry relative="1" as="geometry">
            <mxPoint x="230" y="300" as="sourcePoint" />
          </mxGeometry>
        </mxCell>
        <mxCell id="DcB7vhvRTJopXNtkEEWn-4" style="edgeStyle=orthogonalEdgeStyle;rounded=0;orthogonalLoop=1;jettySize=auto;html=1;exitX=0;exitY=0.25;exitDx=0;exitDy=0;entryX=0;entryY=0.25;entryDx=0;entryDy=0;" parent="1" target="DcB7vhvRTJopXNtkEEWn-1" edge="1">
          <mxGeometry relative="1" as="geometry">
            <mxPoint x="230" y="250" as="sourcePoint" />
          </mxGeometry>
        </mxCell>
        <mxCell id="DcB7vhvRTJopXNtkEEWn-9" style="edgeStyle=orthogonalEdgeStyle;rounded=0;orthogonalLoop=1;jettySize=auto;html=1;exitX=0.25;exitY=1;exitDx=0;exitDy=0;entryX=0.25;entryY=1;entryDx=0;entryDy=0;" parent="1" target="DcB7vhvRTJopXNtkEEWn-1" edge="1">
          <mxGeometry relative="1" as="geometry">
            <mxPoint x="330" y="450" as="sourcePoint" />
          </mxGeometry>
        </mxCell>
        <mxCell id="DcB7vhvRTJopXNtkEEWn-10" style="edgeStyle=orthogonalEdgeStyle;rounded=0;orthogonalLoop=1;jettySize=auto;html=1;exitX=0.5;exitY=1;exitDx=0;exitDy=0;entryX=0.5;entryY=1;entryDx=0;entryDy=0;" parent="1" target="DcB7vhvRTJopXNtkEEWn-1" edge="1">
          <mxGeometry relative="1" as="geometry">
            <mxPoint x="380" y="450" as="sourcePoint" />
          </mxGeometry>
        </mxCell>
        <mxCell id="DcB7vhvRTJopXNtkEEWn-11" style="edgeStyle=orthogonalEdgeStyle;rounded=0;orthogonalLoop=1;jettySize=auto;html=1;exitX=0.75;exitY=1;exitDx=0;exitDy=0;entryX=0.75;entryY=1;entryDx=0;entryDy=0;" parent="1" target="DcB7vhvRTJopXNtkEEWn-1" edge="1">
          <mxGeometry relative="1" as="geometry">
            <mxPoint x="430" y="450" as="sourcePoint" />
          </mxGeometry>
        </mxCell>
        <mxCell id="DcB7vhvRTJopXNtkEEWn-16" style="edgeStyle=orthogonalEdgeStyle;rounded=0;orthogonalLoop=1;jettySize=auto;html=1;exitX=1;exitY=0.25;exitDx=0;exitDy=0;" parent="1" source="DcB7vhvRTJopXNtkEEWn-1" edge="1">
          <mxGeometry relative="1" as="geometry">
            <mxPoint x="540" y="250" as="targetPoint" />
          </mxGeometry>
        </mxCell>
        <mxCell id="DcB7vhvRTJopXNtkEEWn-17" style="edgeStyle=orthogonalEdgeStyle;rounded=0;orthogonalLoop=1;jettySize=auto;html=1;exitX=0.75;exitY=0;exitDx=0;exitDy=0;" parent="1" source="DcB7vhvRTJopXNtkEEWn-1" edge="1">
          <mxGeometry relative="1" as="geometry">
            <mxPoint x="430" y="140" as="targetPoint" />
          </mxGeometry>
        </mxCell>
        <mxCell id="DcB7vhvRTJopXNtkEEWn-18" style="edgeStyle=orthogonalEdgeStyle;rounded=0;orthogonalLoop=1;jettySize=auto;html=1;exitX=0.5;exitY=0;exitDx=0;exitDy=0;" parent="1" source="DcB7vhvRTJopXNtkEEWn-1" edge="1">
          <mxGeometry relative="1" as="geometry">
            <mxPoint x="380" y="140" as="targetPoint" />
          </mxGeometry>
        </mxCell>
        <mxCell id="DcB7vhvRTJopXNtkEEWn-19" style="edgeStyle=orthogonalEdgeStyle;rounded=0;orthogonalLoop=1;jettySize=auto;html=1;exitX=1;exitY=0.5;exitDx=0;exitDy=0;" parent="1" source="DcB7vhvRTJopXNtkEEWn-1" edge="1">
          <mxGeometry relative="1" as="geometry">
            <mxPoint x="540" y="300" as="targetPoint" />
          </mxGeometry>
        </mxCell>
        <mxCell id="DcB7vhvRTJopXNtkEEWn-1" value="icache" style="whiteSpace=wrap;html=1;aspect=fixed;" parent="1" vertex="1">
          <mxGeometry x="280" y="200" width="200" height="200" as="geometry" />
        </mxCell>
        <mxCell id="DcB7vhvRTJopXNtkEEWn-5" value="&lt;u&gt;imemren&lt;/u&gt;" style="text;html=1;strokeColor=none;fillColor=none;align=center;verticalAlign=middle;whiteSpace=wrap;rounded=0;" parent="1" vertex="1">
          <mxGeometry x="180" y="230" width="60" height="30" as="geometry" />
        </mxCell>
        <mxCell id="DcB7vhvRTJopXNtkEEWn-6" value="&lt;u&gt;dmemren&lt;/u&gt;" style="text;html=1;strokeColor=none;fillColor=none;align=center;verticalAlign=middle;whiteSpace=wrap;rounded=0;" parent="1" vertex="1">
          <mxGeometry x="180" y="280" width="60" height="30" as="geometry" />
        </mxCell>
        <mxCell id="DcB7vhvRTJopXNtkEEWn-7" value="&lt;u&gt;dmemwen&lt;/u&gt;" style="text;html=1;strokeColor=none;fillColor=none;align=center;verticalAlign=middle;whiteSpace=wrap;rounded=0;" parent="1" vertex="1">
          <mxGeometry x="180" y="330" width="60" height="30" as="geometry" />
        </mxCell>
        <mxCell id="DcB7vhvRTJopXNtkEEWn-12" value="iload" style="text;html=1;strokeColor=none;fillColor=none;align=center;verticalAlign=middle;whiteSpace=wrap;rounded=0;" parent="1" vertex="1">
          <mxGeometry x="290" y="450" width="60" height="30" as="geometry" />
        </mxCell>
        <mxCell id="DcB7vhvRTJopXNtkEEWn-13" value="iwait" style="text;html=1;strokeColor=none;fillColor=none;align=center;verticalAlign=middle;whiteSpace=wrap;rounded=0;" parent="1" vertex="1">
          <mxGeometry x="350" y="450" width="60" height="30" as="geometry" />
        </mxCell>
        <mxCell id="DcB7vhvRTJopXNtkEEWn-15" value="&lt;u&gt;imemaddr&lt;/u&gt;" style="text;html=1;strokeColor=none;fillColor=none;align=center;verticalAlign=middle;whiteSpace=wrap;rounded=0;" parent="1" vertex="1">
          <mxGeometry x="410" y="450" width="60" height="30" as="geometry" />
        </mxCell>
        <mxCell id="DcB7vhvRTJopXNtkEEWn-20" value="iren" style="text;html=1;align=center;verticalAlign=middle;resizable=0;points=[];autosize=1;strokeColor=none;fillColor=none;" parent="1" vertex="1">
          <mxGeometry x="360" y="110" width="40" height="20" as="geometry" />
        </mxCell>
        <mxCell id="DcB7vhvRTJopXNtkEEWn-21" value="iaddr" style="text;html=1;align=center;verticalAlign=middle;resizable=0;points=[];autosize=1;strokeColor=none;fillColor=none;" parent="1" vertex="1">
          <mxGeometry x="410" y="110" width="40" height="20" as="geometry" />
        </mxCell>
        <mxCell id="DcB7vhvRTJopXNtkEEWn-22" value="&lt;u&gt;imemload&lt;/u&gt;" style="text;html=1;align=center;verticalAlign=middle;resizable=0;points=[];autosize=1;strokeColor=none;fillColor=none;" parent="1" vertex="1">
          <mxGeometry x="540" y="235" width="70" height="20" as="geometry" />
        </mxCell>
        <mxCell id="DcB7vhvRTJopXNtkEEWn-23" value="&lt;u&gt;ihit&lt;/u&gt;" style="text;html=1;align=center;verticalAlign=middle;resizable=0;points=[];autosize=1;strokeColor=none;fillColor=none;" parent="1" vertex="1">
          <mxGeometry x="555" y="290" width="30" height="20" as="geometry" />
        </mxCell>
        <mxCell id="DcB7vhvRTJopXNtkEEWn-29" style="edgeStyle=orthogonalEdgeStyle;rounded=0;orthogonalLoop=1;jettySize=auto;html=1;exitX=1;exitY=0;exitDx=0;exitDy=0;entryX=0;entryY=0;entryDx=0;entryDy=0;" parent="1" source="DcB7vhvRTJopXNtkEEWn-24" target="DcB7vhvRTJopXNtkEEWn-25" edge="1">
          <mxGeometry relative="1" as="geometry" />
        </mxCell>
        <mxCell id="DcB7vhvRTJopXNtkEEWn-24" value="Found" style="ellipse;whiteSpace=wrap;html=1;aspect=fixed;" parent="1" vertex="1">
          <mxGeometry x="240" y="600" width="80" height="80" as="geometry" />
        </mxCell>
        <mxCell id="DcB7vhvRTJopXNtkEEWn-30" style="edgeStyle=orthogonalEdgeStyle;rounded=0;orthogonalLoop=1;jettySize=auto;html=1;exitX=0;exitY=1;exitDx=0;exitDy=0;entryX=1;entryY=1;entryDx=0;entryDy=0;" parent="1" source="DcB7vhvRTJopXNtkEEWn-25" target="DcB7vhvRTJopXNtkEEWn-24" edge="1">
          <mxGeometry relative="1" as="geometry" />
        </mxCell>
        <mxCell id="DcB7vhvRTJopXNtkEEWn-25" value="Missing" style="ellipse;whiteSpace=wrap;html=1;aspect=fixed;" parent="1" vertex="1">
          <mxGeometry x="410" y="600" width="80" height="80" as="geometry" />
        </mxCell>
        <mxCell id="DcB7vhvRTJopXNtkEEWn-27" style="edgeStyle=orthogonalEdgeStyle;rounded=0;orthogonalLoop=1;jettySize=auto;html=1;entryX=0;entryY=1;entryDx=0;entryDy=0;exitX=0;exitY=1;exitDx=0;exitDy=0;" parent="1" source="DcB7vhvRTJopXNtkEEWn-24" edge="1">
          <mxGeometry relative="1" as="geometry">
            <Array as="points">
              <mxPoint x="220" y="668" />
              <mxPoint x="220" y="610" />
            </Array>
            <mxPoint x="252" y="610" as="targetPoint" />
          </mxGeometry>
        </mxCell>
        <mxCell id="DcB7vhvRTJopXNtkEEWn-28" style="edgeStyle=orthogonalEdgeStyle;rounded=0;orthogonalLoop=1;jettySize=auto;html=1;exitX=1;exitY=0;exitDx=0;exitDy=0;entryX=1;entryY=1;entryDx=0;entryDy=0;" parent="1" source="DcB7vhvRTJopXNtkEEWn-25" target="DcB7vhvRTJopXNtkEEWn-25" edge="1">
          <mxGeometry relative="1" as="geometry">
            <Array as="points">
              <mxPoint x="478" y="610" />
              <mxPoint x="510" y="610" />
              <mxPoint x="510" y="668" />
            </Array>
          </mxGeometry>
        </mxCell>
        <mxCell id="DcB7vhvRTJopXNtkEEWn-31" value="!ihit" style="text;html=1;strokeColor=none;fillColor=none;align=center;verticalAlign=middle;whiteSpace=wrap;rounded=0;" parent="1" vertex="1">
          <mxGeometry x="340" y="580" width="60" height="30" as="geometry" />
        </mxCell>
        <mxCell id="DcB7vhvRTJopXNtkEEWn-32" value="!iwait" style="text;html=1;strokeColor=none;fillColor=none;align=center;verticalAlign=middle;whiteSpace=wrap;rounded=0;" parent="1" vertex="1">
          <mxGeometry x="340" y="640" width="60" height="30" as="geometry" />
        </mxCell>
        <mxCell id="DcB7vhvRTJopXNtkEEWn-33" value="iwait" style="text;html=1;strokeColor=none;fillColor=none;align=center;verticalAlign=middle;whiteSpace=wrap;rounded=0;" parent="1" vertex="1">
          <mxGeometry x="510" y="625" width="60" height="30" as="geometry" />
        </mxCell>
        <mxCell id="DcB7vhvRTJopXNtkEEWn-34" value="ihit" style="text;html=1;strokeColor=none;fillColor=none;align=center;verticalAlign=middle;whiteSpace=wrap;rounded=0;" parent="1" vertex="1">
          <mxGeometry x="160" y="625" width="60" height="30" as="geometry" />
        </mxCell>
        <mxCell id="jS_3z3e3XatJbplAwCmr-10" style="edgeStyle=orthogonalEdgeStyle;rounded=0;orthogonalLoop=1;jettySize=auto;html=1;exitX=0.25;exitY=1;exitDx=0;exitDy=0;entryX=0;entryY=0.75;entryDx=0;entryDy=0;entryPerimeter=0;" parent="1" source="jS_3z3e3XatJbplAwCmr-2" target="jS_3z3e3XatJbplAwCmr-7" edge="1">
          <mxGeometry relative="1" as="geometry">
            <Array as="points">
              <mxPoint x="-402" y="490" />
              <mxPoint x="-443" y="490" />
            </Array>
          </mxGeometry>
        </mxCell>
        <mxCell id="jS_3z3e3XatJbplAwCmr-2" value="valid" style="rounded=0;whiteSpace=wrap;html=1;" parent="1" vertex="1">
          <mxGeometry x="-407" y="250" width="20" height="280" as="geometry" />
        </mxCell>
        <mxCell id="jS_3z3e3XatJbplAwCmr-8" style="edgeStyle=orthogonalEdgeStyle;rounded=0;orthogonalLoop=1;jettySize=auto;html=1;entryX=0.738;entryY=0.724;entryDx=0;entryDy=0;entryPerimeter=0;" parent="1" source="jS_3z3e3XatJbplAwCmr-3" target="jS_3z3e3XatJbplAwCmr-6" edge="1">
          <mxGeometry relative="1" as="geometry" />
        </mxCell>
        <mxCell id="jS_3z3e3XatJbplAwCmr-3" value="tag" style="rounded=0;whiteSpace=wrap;html=1;" parent="1" vertex="1">
          <mxGeometry x="-367" y="250" width="40" height="280" as="geometry" />
        </mxCell>
        <mxCell id="jS_3z3e3XatJbplAwCmr-13" style="edgeStyle=orthogonalEdgeStyle;rounded=0;orthogonalLoop=1;jettySize=auto;html=1;exitX=0.5;exitY=1;exitDx=0;exitDy=0;" parent="1" source="jS_3z3e3XatJbplAwCmr-4" edge="1">
          <mxGeometry relative="1" as="geometry">
            <mxPoint x="-216.82352941176464" y="680" as="targetPoint" />
          </mxGeometry>
        </mxCell>
        <mxCell id="jS_3z3e3XatJbplAwCmr-18" style="edgeStyle=orthogonalEdgeStyle;rounded=0;orthogonalLoop=1;jettySize=auto;html=1;exitX=1;exitY=0.25;exitDx=0;exitDy=0;entryX=1;entryY=0.25;entryDx=0;entryDy=0;" parent="1" target="jS_3z3e3XatJbplAwCmr-4" edge="1">
          <mxGeometry relative="1" as="geometry">
            <mxPoint x="-67" y="319.9411764705883" as="sourcePoint" />
          </mxGeometry>
        </mxCell>
        <mxCell id="jS_3z3e3XatJbplAwCmr-4" value="data" style="rounded=0;whiteSpace=wrap;html=1;" parent="1" vertex="1">
          <mxGeometry x="-307" y="250" width="180" height="280" as="geometry" />
        </mxCell>
        <mxCell id="jS_3z3e3XatJbplAwCmr-9" style="edgeStyle=orthogonalEdgeStyle;rounded=0;orthogonalLoop=1;jettySize=auto;html=1;exitX=0.25;exitY=1;exitDx=0;exitDy=0;entryX=0.745;entryY=0.25;entryDx=0;entryDy=0;entryPerimeter=0;" parent="1" source="jS_3z3e3XatJbplAwCmr-5" target="jS_3z3e3XatJbplAwCmr-6" edge="1">
          <mxGeometry relative="1" as="geometry">
            <mxPoint x="-387" y="590" as="targetPoint" />
            <Array as="points">
              <mxPoint x="-337" y="180" />
              <mxPoint x="-457" y="180" />
              <mxPoint x="-457" y="560" />
              <mxPoint x="-387" y="560" />
            </Array>
          </mxGeometry>
        </mxCell>
        <mxCell id="jS_3z3e3XatJbplAwCmr-14" style="edgeStyle=orthogonalEdgeStyle;rounded=0;orthogonalLoop=1;jettySize=auto;html=1;exitX=0.5;exitY=0;exitDx=0;exitDy=0;entryX=0.5;entryY=0;entryDx=0;entryDy=0;" parent="1" target="jS_3z3e3XatJbplAwCmr-5" edge="1">
          <mxGeometry relative="1" as="geometry">
            <mxPoint x="-266.82352941176464" y="50" as="sourcePoint" />
          </mxGeometry>
        </mxCell>
        <mxCell id="jS_3z3e3XatJbplAwCmr-23" style="edgeStyle=orthogonalEdgeStyle;rounded=0;orthogonalLoop=1;jettySize=auto;html=1;exitX=0.75;exitY=1;exitDx=0;exitDy=0;" parent="1" source="jS_3z3e3XatJbplAwCmr-5" edge="1">
          <mxGeometry relative="1" as="geometry">
            <mxPoint x="-57" y="180" as="targetPoint" />
            <Array as="points">
              <mxPoint x="-197" y="180" />
              <mxPoint x="-67" y="180" />
            </Array>
          </mxGeometry>
        </mxCell>
        <mxCell id="jS_3z3e3XatJbplAwCmr-5" value="Address" style="rounded=0;whiteSpace=wrap;html=1;" parent="1" vertex="1">
          <mxGeometry x="-407" y="90" width="280" height="40" as="geometry" />
        </mxCell>
        <mxCell id="jS_3z3e3XatJbplAwCmr-11" style="edgeStyle=orthogonalEdgeStyle;rounded=0;orthogonalLoop=1;jettySize=auto;html=1;exitX=0;exitY=0.5;exitDx=0;exitDy=0;entryX=0;entryY=0.25;entryDx=0;entryDy=0;entryPerimeter=0;" parent="1" source="jS_3z3e3XatJbplAwCmr-6" target="jS_3z3e3XatJbplAwCmr-7" edge="1">
          <mxGeometry relative="1" as="geometry" />
        </mxCell>
        <mxCell id="jS_3z3e3XatJbplAwCmr-20" style="edgeStyle=orthogonalEdgeStyle;rounded=0;orthogonalLoop=1;jettySize=auto;html=1;exitX=0;exitY=0.5;exitDx=0;exitDy=0;" parent="1" source="jS_3z3e3XatJbplAwCmr-6" edge="1">
          <mxGeometry relative="1" as="geometry">
            <mxPoint x="-57" y="580" as="targetPoint" />
            <Array as="points">
              <mxPoint x="-372" y="670" />
              <mxPoint x="-297" y="670" />
              <mxPoint x="-297" y="580" />
            </Array>
          </mxGeometry>
        </mxCell>
        <mxCell id="jS_3z3e3XatJbplAwCmr-6" value="" style="shape=dataStorage;whiteSpace=wrap;html=1;fixedSize=1;rotation=-90;" parent="1" vertex="1">
          <mxGeometry x="-402" y="590" width="60" height="60" as="geometry" />
        </mxCell>
        <mxCell id="jS_3z3e3XatJbplAwCmr-12" style="edgeStyle=orthogonalEdgeStyle;rounded=0;orthogonalLoop=1;jettySize=auto;html=1;exitX=1;exitY=0.5;exitDx=0;exitDy=0;exitPerimeter=0;" parent="1" source="jS_3z3e3XatJbplAwCmr-7" edge="1">
          <mxGeometry relative="1" as="geometry">
            <mxPoint x="-287" y="750" as="targetPoint" />
            <Array as="points">
              <mxPoint x="-427" y="750" />
              <mxPoint x="-297" y="750" />
            </Array>
          </mxGeometry>
        </mxCell>
        <mxCell id="jS_3z3e3XatJbplAwCmr-27" style="edgeStyle=orthogonalEdgeStyle;rounded=0;orthogonalLoop=1;jettySize=auto;html=1;exitX=1;exitY=0.5;exitDx=0;exitDy=0;exitPerimeter=0;entryX=0.5;entryY=1;entryDx=0;entryDy=0;" parent="1" source="jS_3z3e3XatJbplAwCmr-7" target="jS_3z3e3XatJbplAwCmr-25" edge="1">
          <mxGeometry relative="1" as="geometry">
            <Array as="points">
              <mxPoint x="-427" y="750" />
              <mxPoint x="-682" y="750" />
            </Array>
          </mxGeometry>
        </mxCell>
        <mxCell id="jS_3z3e3XatJbplAwCmr-7" value="" style="shape=or;whiteSpace=wrap;html=1;rotation=90;" parent="1" vertex="1">
          <mxGeometry x="-452" y="680" width="50" height="65" as="geometry" />
        </mxCell>
        <mxCell id="jS_3z3e3XatJbplAwCmr-16" value="ihit" style="text;html=1;align=center;verticalAlign=middle;resizable=0;points=[];autosize=1;strokeColor=none;fillColor=none;" parent="1" vertex="1">
          <mxGeometry x="-292" y="740" width="30" height="20" as="geometry" />
        </mxCell>
        <mxCell id="jS_3z3e3XatJbplAwCmr-17" value="imemload" style="text;html=1;align=center;verticalAlign=middle;resizable=0;points=[];autosize=1;strokeColor=none;fillColor=none;" parent="1" vertex="1">
          <mxGeometry x="-252" y="680" width="70" height="20" as="geometry" />
        </mxCell>
        <mxCell id="jS_3z3e3XatJbplAwCmr-19" value="iload" style="text;html=1;align=center;verticalAlign=middle;resizable=0;points=[];autosize=1;strokeColor=none;fillColor=none;" parent="1" vertex="1">
          <mxGeometry x="-67" y="310" width="40" height="20" as="geometry" />
        </mxCell>
        <mxCell id="jS_3z3e3XatJbplAwCmr-21" value="iren" style="text;html=1;align=center;verticalAlign=middle;resizable=0;points=[];autosize=1;strokeColor=none;fillColor=none;" parent="1" vertex="1">
          <mxGeometry x="-57" y="570" width="40" height="20" as="geometry" />
        </mxCell>
        <mxCell id="jS_3z3e3XatJbplAwCmr-22" value="imemaddr" style="text;html=1;align=center;verticalAlign=middle;resizable=0;points=[];autosize=1;strokeColor=none;fillColor=none;" parent="1" vertex="1">
          <mxGeometry x="-302" y="30" width="70" height="20" as="geometry" />
        </mxCell>
        <mxCell id="jS_3z3e3XatJbplAwCmr-24" value="iaddr" style="text;html=1;align=center;verticalAlign=middle;resizable=0;points=[];autosize=1;strokeColor=none;fillColor=none;" parent="1" vertex="1">
          <mxGeometry x="-57" y="170" width="40" height="20" as="geometry" />
        </mxCell>
        <mxCell id="jS_3z3e3XatJbplAwCmr-28" style="edgeStyle=orthogonalEdgeStyle;rounded=0;orthogonalLoop=1;jettySize=auto;html=1;exitX=1;exitY=0.25;exitDx=0;exitDy=0;entryX=0.5;entryY=0;entryDx=0;entryDy=0;" parent="1" source="jS_3z3e3XatJbplAwCmr-25" target="jS_3z3e3XatJbplAwCmr-2" edge="1">
          <mxGeometry relative="1" as="geometry">
            <Array as="points">
              <mxPoint x="-497" y="368" />
              <mxPoint x="-497" y="230" />
              <mxPoint x="-397" y="230" />
            </Array>
          </mxGeometry>
        </mxCell>
        <mxCell id="jS_3z3e3XatJbplAwCmr-29" style="edgeStyle=orthogonalEdgeStyle;rounded=0;orthogonalLoop=1;jettySize=auto;html=1;exitX=1;exitY=0.25;exitDx=0;exitDy=0;entryX=0.5;entryY=0;entryDx=0;entryDy=0;" parent="1" source="jS_3z3e3XatJbplAwCmr-25" target="jS_3z3e3XatJbplAwCmr-3" edge="1">
          <mxGeometry relative="1" as="geometry" />
        </mxCell>
        <mxCell id="jS_3z3e3XatJbplAwCmr-30" style="edgeStyle=orthogonalEdgeStyle;rounded=0;orthogonalLoop=1;jettySize=auto;html=1;exitX=1;exitY=0.25;exitDx=0;exitDy=0;entryX=0.25;entryY=0;entryDx=0;entryDy=0;" parent="1" source="jS_3z3e3XatJbplAwCmr-25" target="jS_3z3e3XatJbplAwCmr-4" edge="1">
          <mxGeometry relative="1" as="geometry">
            <Array as="points">
              <mxPoint x="-497" y="368" />
              <mxPoint x="-497" y="230" />
              <mxPoint x="-262" y="230" />
            </Array>
          </mxGeometry>
        </mxCell>
        <mxCell id="jS_3z3e3XatJbplAwCmr-33" style="edgeStyle=orthogonalEdgeStyle;rounded=0;orthogonalLoop=1;jettySize=auto;html=1;exitX=0;exitY=0.25;exitDx=0;exitDy=0;entryX=0;entryY=0.25;entryDx=0;entryDy=0;" parent="1" target="jS_3z3e3XatJbplAwCmr-25" edge="1">
          <mxGeometry relative="1" as="geometry">
            <mxPoint x="-767" y="367.58823529411757" as="sourcePoint" />
          </mxGeometry>
        </mxCell>
        <mxCell id="jS_3z3e3XatJbplAwCmr-34" style="edgeStyle=orthogonalEdgeStyle;rounded=0;orthogonalLoop=1;jettySize=auto;html=1;exitX=0;exitY=0.5;exitDx=0;exitDy=0;entryX=0;entryY=0.5;entryDx=0;entryDy=0;" parent="1" target="jS_3z3e3XatJbplAwCmr-25" edge="1">
          <mxGeometry relative="1" as="geometry">
            <mxPoint x="-767" y="395.2352941176471" as="sourcePoint" />
          </mxGeometry>
        </mxCell>
        <mxCell id="jS_3z3e3XatJbplAwCmr-35" style="edgeStyle=orthogonalEdgeStyle;rounded=0;orthogonalLoop=1;jettySize=auto;html=1;exitX=0;exitY=0.75;exitDx=0;exitDy=0;entryX=0;entryY=0.75;entryDx=0;entryDy=0;" parent="1" target="jS_3z3e3XatJbplAwCmr-25" edge="1">
          <mxGeometry relative="1" as="geometry">
            <mxPoint x="-767" y="422.2941176470588" as="sourcePoint" />
          </mxGeometry>
        </mxCell>
        <mxCell id="jS_3z3e3XatJbplAwCmr-39" style="edgeStyle=orthogonalEdgeStyle;rounded=0;orthogonalLoop=1;jettySize=auto;html=1;exitX=0.5;exitY=0;exitDx=0;exitDy=0;entryX=0.5;entryY=0;entryDx=0;entryDy=0;" parent="1" target="jS_3z3e3XatJbplAwCmr-25" edge="1">
          <mxGeometry relative="1" as="geometry">
            <mxPoint x="-682.1176470588234" y="300" as="sourcePoint" />
          </mxGeometry>
        </mxCell>
        <mxCell id="jS_3z3e3XatJbplAwCmr-25" value="Controller" style="whiteSpace=wrap;html=1;aspect=fixed;" parent="1" vertex="1">
          <mxGeometry x="-737" y="340" width="110" height="110" as="geometry" />
        </mxCell>
        <mxCell id="jS_3z3e3XatJbplAwCmr-31" value="index" style="text;html=1;strokeColor=none;fillColor=none;align=center;verticalAlign=middle;whiteSpace=wrap;rounded=0;" parent="1" vertex="1">
          <mxGeometry x="-577" y="340" width="60" height="30" as="geometry" />
        </mxCell>
        <mxCell id="jS_3z3e3XatJbplAwCmr-36" value="dmemren" style="text;html=1;align=center;verticalAlign=middle;resizable=0;points=[];autosize=1;strokeColor=none;fillColor=none;" parent="1" vertex="1">
          <mxGeometry x="-832" y="350" width="70" height="20" as="geometry" />
        </mxCell>
        <mxCell id="jS_3z3e3XatJbplAwCmr-37" value="dmemwen" style="text;html=1;align=center;verticalAlign=middle;resizable=0;points=[];autosize=1;strokeColor=none;fillColor=none;" parent="1" vertex="1">
          <mxGeometry x="-832" y="380" width="70" height="20" as="geometry" />
        </mxCell>
        <mxCell id="jS_3z3e3XatJbplAwCmr-38" value="imemren" style="text;html=1;align=center;verticalAlign=middle;resizable=0;points=[];autosize=1;strokeColor=none;fillColor=none;" parent="1" vertex="1">
          <mxGeometry x="-827" y="410" width="60" height="20" as="geometry" />
        </mxCell>
        <mxCell id="jS_3z3e3XatJbplAwCmr-40" value="iwait" style="text;html=1;align=center;verticalAlign=middle;resizable=0;points=[];autosize=1;strokeColor=none;fillColor=none;" parent="1" vertex="1">
          <mxGeometry x="-702" y="280" width="40" height="20" as="geometry" />
        </mxCell>
      </root>
    </mxGraphModel>
  </diagram>
  <diagram id="zTuwsdn8oAed4icrjy39" name="Page-2">
    <mxGraphModel dx="1547" dy="988" grid="1" gridSize="10" guides="1" tooltips="1" connect="1" arrows="1" fold="1" page="1" pageScale="1" pageWidth="1100" pageHeight="850" math="0" shadow="0">
      <root>
        <mxCell id="xEfdTOnW5aqnIUiHK3hS-0" />
        <mxCell id="xEfdTOnW5aqnIUiHK3hS-1" parent="xEfdTOnW5aqnIUiHK3hS-0" />
        <mxCell id="xEfdTOnW5aqnIUiHK3hS-4" value="WRITE FIRST&lt;br&gt;[ccif.daddr = {selected_tag,index,000}]&lt;br&gt;[ccif.dstore = selected_block[31:0]]&lt;br&gt;[ccif.dWEN = 1&#39;b1]" style="ellipse;whiteSpace=wrap;html=1;aspect=fixed;" vertex="1" parent="xEfdTOnW5aqnIUiHK3hS-1">
          <mxGeometry x="525" y="298" width="160" height="160" as="geometry" />
        </mxCell>
        <mxCell id="xEfdTOnW5aqnIUiHK3hS-5" value="(!dhit || flush) &amp;amp;&amp;amp; selected_dirty" style="text;html=1;strokeColor=none;fillColor=none;align=center;verticalAlign=middle;whiteSpace=wrap;rounded=0;" vertex="1" parent="xEfdTOnW5aqnIUiHK3hS-1">
          <mxGeometry x="515" y="258" width="80" height="20" as="geometry" />
        </mxCell>
        <mxCell id="xEfdTOnW5aqnIUiHK3hS-9" value="WRITE SECOND&lt;br&gt;[ccif.daddr = {selected_tag,index,100}]&lt;br&gt;[ccif.dstore = selected_block[63:32]]&lt;br&gt;[ccif.dWEN = 1&#39;b1]&lt;br&gt;[clear_dirty = 1]" style="ellipse;whiteSpace=wrap;html=1;aspect=fixed;" vertex="1" parent="xEfdTOnW5aqnIUiHK3hS-1">
          <mxGeometry x="525" y="508" width="160" height="160" as="geometry" />
        </mxCell>
        <mxCell id="xEfdTOnW5aqnIUiHK3hS-10" value="" style="endArrow=classic;html=1;rounded=0;exitX=0.5;exitY=1;exitDx=0;exitDy=0;entryX=0.5;entryY=0;entryDx=0;entryDy=0;" edge="1" parent="xEfdTOnW5aqnIUiHK3hS-1" source="xEfdTOnW5aqnIUiHK3hS-4" target="xEfdTOnW5aqnIUiHK3hS-9">
          <mxGeometry width="50" height="50" relative="1" as="geometry">
            <mxPoint x="1055" y="488" as="sourcePoint" />
            <mxPoint x="1105" y="438" as="targetPoint" />
          </mxGeometry>
        </mxCell>
        <mxCell id="xEfdTOnW5aqnIUiHK3hS-11" value="" style="endArrow=classic;html=1;rounded=1;entryX=0;entryY=1;entryDx=0;entryDy=0;exitX=0;exitY=0;exitDx=0;exitDy=0;" edge="1" parent="xEfdTOnW5aqnIUiHK3hS-1" source="xEfdTOnW5aqnIUiHK3hS-4" target="xEfdTOnW5aqnIUiHK3hS-4">
          <mxGeometry width="50" height="50" relative="1" as="geometry">
            <mxPoint x="1055" y="478" as="sourcePoint" />
            <mxPoint x="1105" y="428" as="targetPoint" />
            <Array as="points">
              <mxPoint x="505" y="378" />
            </Array>
          </mxGeometry>
        </mxCell>
        <mxCell id="xEfdTOnW5aqnIUiHK3hS-13" value="!mh_en" style="text;html=1;strokeColor=none;fillColor=none;align=center;verticalAlign=middle;whiteSpace=wrap;rounded=0;" vertex="1" parent="xEfdTOnW5aqnIUiHK3hS-1">
          <mxGeometry x="450" y="363" width="40" height="30" as="geometry" />
        </mxCell>
        <mxCell id="xEfdTOnW5aqnIUiHK3hS-14" value="mh_en" style="text;html=1;strokeColor=none;fillColor=none;align=center;verticalAlign=middle;whiteSpace=wrap;rounded=0;" vertex="1" parent="xEfdTOnW5aqnIUiHK3hS-1">
          <mxGeometry x="555" y="468" width="40" height="30" as="geometry" />
        </mxCell>
        <mxCell id="xEfdTOnW5aqnIUiHK3hS-16" value="" style="endArrow=classic;html=1;exitX=0;exitY=1;exitDx=0;exitDy=0;entryX=1;entryY=1;entryDx=0;entryDy=0;rounded=1;" edge="1" parent="xEfdTOnW5aqnIUiHK3hS-1" source="xEfdTOnW5aqnIUiHK3hS-9" target="xEfdTOnW5aqnIUiHK3hS-9">
          <mxGeometry width="50" height="50" relative="1" as="geometry">
            <mxPoint x="1055" y="508" as="sourcePoint" />
            <mxPoint x="1105" y="458" as="targetPoint" />
            <Array as="points">
              <mxPoint x="598" y="698" />
            </Array>
          </mxGeometry>
        </mxCell>
        <mxCell id="xEfdTOnW5aqnIUiHK3hS-17" value="!mh_en" style="text;html=1;strokeColor=none;fillColor=none;align=center;verticalAlign=middle;whiteSpace=wrap;rounded=0;" vertex="1" parent="xEfdTOnW5aqnIUiHK3hS-1">
          <mxGeometry x="578" y="698" width="40" height="30" as="geometry" />
        </mxCell>
        <mxCell id="xEfdTOnW5aqnIUiHK3hS-20" value="LOAD FIRST&lt;br&gt;[ccif.daddr = {tag,index,000}]&lt;br&gt;[ccif.dREN = 1&#39;b1]&lt;br&gt;[write_offset = 0]&lt;br&gt;[load_data = 1&#39;b1]&lt;br&gt;[decr_counter=1&#39;b1]" style="ellipse;whiteSpace=wrap;html=1;aspect=fixed;" vertex="1" parent="xEfdTOnW5aqnIUiHK3hS-1">
          <mxGeometry x="768" y="298" width="160" height="160" as="geometry" />
        </mxCell>
        <mxCell id="xEfdTOnW5aqnIUiHK3hS-21" value="" style="endArrow=classic;html=1;rounded=1;entryX=0;entryY=0.5;entryDx=0;entryDy=0;exitX=1;exitY=0.5;exitDx=0;exitDy=0;" edge="1" parent="xEfdTOnW5aqnIUiHK3hS-1" source="xEfdTOnW5aqnIUiHK3hS-9" target="xEfdTOnW5aqnIUiHK3hS-20">
          <mxGeometry width="50" height="50" relative="1" as="geometry">
            <mxPoint x="1058" y="548" as="sourcePoint" />
            <mxPoint x="1108" y="498" as="targetPoint" />
            <Array as="points">
              <mxPoint x="735" y="588" />
              <mxPoint x="735" y="378" />
            </Array>
          </mxGeometry>
        </mxCell>
        <mxCell id="xEfdTOnW5aqnIUiHK3hS-22" value="mh_en &amp;amp;&amp;amp; !flush" style="text;html=1;strokeColor=none;fillColor=none;align=center;verticalAlign=middle;whiteSpace=wrap;rounded=0;" vertex="1" parent="xEfdTOnW5aqnIUiHK3hS-1">
          <mxGeometry x="688" y="545.88" width="40" height="30" as="geometry" />
        </mxCell>
        <mxCell id="xEfdTOnW5aqnIUiHK3hS-24" value="" style="endArrow=classic;html=1;rounded=1;exitX=0.5;exitY=1;exitDx=0;exitDy=0;entryX=0.5;entryY=0;entryDx=0;entryDy=0;" edge="1" parent="xEfdTOnW5aqnIUiHK3hS-1" source="xEfdTOnW5aqnIUiHK3hS-20" target="xEfdTOnW5aqnIUiHK3hS-25">
          <mxGeometry width="50" height="50" relative="1" as="geometry">
            <mxPoint x="1058" y="568" as="sourcePoint" />
            <mxPoint x="848" y="498" as="targetPoint" />
          </mxGeometry>
        </mxCell>
        <mxCell id="xEfdTOnW5aqnIUiHK3hS-25" value="LOAD SECOND&lt;br&gt;[ccif.daddr = {tag,index,000}]&lt;br&gt;[ccif.dREN = 1&#39;b1]&lt;br&gt;[write_offset = 1]&lt;br&gt;[load_data = 1&#39;b1]&lt;br&gt;[set_valid = 1]" style="ellipse;whiteSpace=wrap;html=1;aspect=fixed;" vertex="1" parent="xEfdTOnW5aqnIUiHK3hS-1">
          <mxGeometry x="768" y="508" width="160" height="160" as="geometry" />
        </mxCell>
        <mxCell id="xEfdTOnW5aqnIUiHK3hS-26" value="" style="endArrow=classic;html=1;rounded=1;exitX=1;exitY=0;exitDx=0;exitDy=0;entryX=1;entryY=1;entryDx=0;entryDy=0;" edge="1" parent="xEfdTOnW5aqnIUiHK3hS-1" source="xEfdTOnW5aqnIUiHK3hS-20" target="xEfdTOnW5aqnIUiHK3hS-20">
          <mxGeometry width="50" height="50" relative="1" as="geometry">
            <mxPoint x="1058" y="558" as="sourcePoint" />
            <mxPoint x="1108" y="508" as="targetPoint" />
            <Array as="points">
              <mxPoint x="948" y="378" />
            </Array>
          </mxGeometry>
        </mxCell>
        <mxCell id="xEfdTOnW5aqnIUiHK3hS-27" value="!mh_en" style="text;html=1;strokeColor=none;fillColor=none;align=center;verticalAlign=middle;whiteSpace=wrap;rounded=0;" vertex="1" parent="xEfdTOnW5aqnIUiHK3hS-1">
          <mxGeometry x="958" y="363" width="40" height="30" as="geometry" />
        </mxCell>
        <mxCell id="xEfdTOnW5aqnIUiHK3hS-28" value="mh_en" style="text;html=1;strokeColor=none;fillColor=none;align=center;verticalAlign=middle;whiteSpace=wrap;rounded=0;" vertex="1" parent="xEfdTOnW5aqnIUiHK3hS-1">
          <mxGeometry x="858" y="468" width="40" height="30" as="geometry" />
        </mxCell>
        <mxCell id="xEfdTOnW5aqnIUiHK3hS-29" value="" style="endArrow=classic;html=1;rounded=1;exitX=0.5;exitY=1;exitDx=0;exitDy=0;entryX=0.5;entryY=0;entryDx=0;entryDy=0;" edge="1" parent="xEfdTOnW5aqnIUiHK3hS-1" source="ltSO0W6Xo73tTstEGfrn-25" target="xEfdTOnW5aqnIUiHK3hS-4">
          <mxGeometry width="50" height="50" relative="1" as="geometry">
            <mxPoint x="609" y="247.99999999999977" as="sourcePoint" />
            <mxPoint x="1108" y="508" as="targetPoint" />
          </mxGeometry>
        </mxCell>
        <mxCell id="xEfdTOnW5aqnIUiHK3hS-31" value="" style="endArrow=classic;html=1;rounded=1;exitX=1;exitY=0.5;exitDx=0;exitDy=0;entryX=0.5;entryY=0;entryDx=0;entryDy=0;" edge="1" parent="xEfdTOnW5aqnIUiHK3hS-1" source="ltSO0W6Xo73tTstEGfrn-25" target="xEfdTOnW5aqnIUiHK3hS-20">
          <mxGeometry width="50" height="50" relative="1" as="geometry">
            <mxPoint x="658" y="199" as="sourcePoint" />
            <mxPoint x="1108" y="508" as="targetPoint" />
            <Array as="points">
              <mxPoint x="848" y="160" />
            </Array>
          </mxGeometry>
        </mxCell>
        <mxCell id="xEfdTOnW5aqnIUiHK3hS-32" value="!dhit &amp;amp;&amp;amp; !selected_dirty" style="text;html=1;strokeColor=none;fillColor=none;align=center;verticalAlign=middle;whiteSpace=wrap;rounded=0;" vertex="1" parent="xEfdTOnW5aqnIUiHK3hS-1">
          <mxGeometry x="715" y="128" width="80" height="20" as="geometry" />
        </mxCell>
        <mxCell id="xEfdTOnW5aqnIUiHK3hS-33" value="" style="endArrow=classic;html=1;rounded=1;exitX=0;exitY=1;exitDx=0;exitDy=0;entryX=1;entryY=1;entryDx=0;entryDy=0;" edge="1" parent="xEfdTOnW5aqnIUiHK3hS-1" source="xEfdTOnW5aqnIUiHK3hS-25" target="xEfdTOnW5aqnIUiHK3hS-25">
          <mxGeometry width="50" height="50" relative="1" as="geometry">
            <mxPoint x="1058" y="558" as="sourcePoint" />
            <mxPoint x="1108" y="508" as="targetPoint" />
            <Array as="points">
              <mxPoint x="848" y="698" />
            </Array>
          </mxGeometry>
        </mxCell>
        <mxCell id="xEfdTOnW5aqnIUiHK3hS-34" value="!mh_en" style="text;html=1;strokeColor=none;fillColor=none;align=center;verticalAlign=middle;whiteSpace=wrap;rounded=0;" vertex="1" parent="xEfdTOnW5aqnIUiHK3hS-1">
          <mxGeometry x="828" y="698" width="40" height="30" as="geometry" />
        </mxCell>
        <mxCell id="xEfdTOnW5aqnIUiHK3hS-41" value="mh_en" style="text;html=1;strokeColor=none;fillColor=none;align=center;verticalAlign=middle;whiteSpace=wrap;rounded=0;" vertex="1" parent="xEfdTOnW5aqnIUiHK3hS-1">
          <mxGeometry x="948" y="554.5" width="60" height="30" as="geometry" />
        </mxCell>
        <mxCell id="xEfdTOnW5aqnIUiHK3hS-42" value="" style="endArrow=classic;html=1;rounded=1;exitX=1;exitY=0.5;exitDx=0;exitDy=0;entryX=0.5;entryY=0;entryDx=0;entryDy=0;" edge="1" parent="xEfdTOnW5aqnIUiHK3hS-1" source="xEfdTOnW5aqnIUiHK3hS-25" target="ltSO0W6Xo73tTstEGfrn-25">
          <mxGeometry width="50" height="50" relative="1" as="geometry">
            <mxPoint x="1105" y="508" as="sourcePoint" />
            <mxPoint x="605" y="70" as="targetPoint" />
            <Array as="points">
              <mxPoint x="1025" y="590" />
              <mxPoint x="1025" y="40" />
              <mxPoint x="605" y="40" />
            </Array>
          </mxGeometry>
        </mxCell>
        <mxCell id="xEfdTOnW5aqnIUiHK3hS-44" value="&lt;font style=&quot;font-size: 15px&quot;&gt;selected_dirty = replace_num ? dirty0[index] : dirty1[index]&amp;nbsp;&lt;br&gt;selected_tag = replace_num ? tag0[index] : tag1[index]&amp;nbsp;&lt;br&gt;selected_block = replace_num ? block0[index] : block1[index]&amp;nbsp;&lt;br&gt;mh_en = !dwait;&lt;br&gt;&lt;/font&gt;" style="text;html=1;strokeColor=none;fillColor=none;align=left;verticalAlign=middle;whiteSpace=wrap;rounded=0;" vertex="1" parent="xEfdTOnW5aqnIUiHK3hS-1">
          <mxGeometry x="550" y="740" width="430" height="87.5" as="geometry" />
        </mxCell>
        <mxCell id="EQuZEqetHIDUBt2iD832-4" value="Miss Handler" style="rounded=0;whiteSpace=wrap;html=1;fontSize=15;" vertex="1" parent="xEfdTOnW5aqnIUiHK3hS-1">
          <mxGeometry x="1910" y="312" width="120" height="60" as="geometry" />
        </mxCell>
        <mxCell id="EQuZEqetHIDUBt2iD832-5" value="Set 0" style="rounded=0;whiteSpace=wrap;html=1;fontSize=15;" vertex="1" parent="xEfdTOnW5aqnIUiHK3hS-1">
          <mxGeometry x="1440" y="306" width="120" height="60" as="geometry" />
        </mxCell>
        <mxCell id="EQuZEqetHIDUBt2iD832-6" value="Set 1" style="rounded=0;whiteSpace=wrap;html=1;fontSize=15;" vertex="1" parent="xEfdTOnW5aqnIUiHK3hS-1">
          <mxGeometry x="1650" y="306" width="120" height="60" as="geometry" />
        </mxCell>
        <mxCell id="EQuZEqetHIDUBt2iD832-7" value="LRU" style="rounded=0;whiteSpace=wrap;html=1;fontSize=15;" vertex="1" parent="xEfdTOnW5aqnIUiHK3hS-1">
          <mxGeometry x="1370" y="653" width="80" height="60" as="geometry" />
        </mxCell>
        <mxCell id="k09RYwK2ea91Q8oCJMEr-0" value="Address" style="rounded=0;whiteSpace=wrap;html=1;" vertex="1" parent="xEfdTOnW5aqnIUiHK3hS-1">
          <mxGeometry x="1470" y="80" width="280" height="40" as="geometry" />
        </mxCell>
        <mxCell id="zrRTkS5JI1-01QVbvCzG-0" value="" style="endArrow=classic;html=1;rounded=1;fontSize=15;entryX=0.5;entryY=0;entryDx=0;entryDy=0;exitX=0.5;exitY=1;exitDx=0;exitDy=0;" edge="1" parent="xEfdTOnW5aqnIUiHK3hS-1" source="zrRTkS5JI1-01QVbvCzG-1" target="k09RYwK2ea91Q8oCJMEr-0">
          <mxGeometry width="50" height="50" relative="1" as="geometry">
            <mxPoint x="1610" y="60" as="sourcePoint" />
            <mxPoint x="1880" y="250" as="targetPoint" />
          </mxGeometry>
        </mxCell>
        <mxCell id="zrRTkS5JI1-01QVbvCzG-1" value="dpcif.dmemaddr" style="text;html=1;strokeColor=none;fillColor=none;align=center;verticalAlign=middle;whiteSpace=wrap;rounded=0;fontSize=15;" vertex="1" parent="xEfdTOnW5aqnIUiHK3hS-1">
          <mxGeometry x="1580" y="10" width="60" height="20" as="geometry" />
        </mxCell>
        <mxCell id="DG8PfcGv6j1Ny0go0JBR-6" value="LRU[index]" style="text;html=1;strokeColor=none;fillColor=none;align=center;verticalAlign=middle;whiteSpace=wrap;rounded=0;fontSize=15;" vertex="1" parent="xEfdTOnW5aqnIUiHK3hS-1">
          <mxGeometry x="1220" y="653" width="60" height="23" as="geometry" />
        </mxCell>
        <mxCell id="DG8PfcGv6j1Ny0go0JBR-7" value="" style="endArrow=classic;html=1;rounded=0;fontSize=15;exitX=0.75;exitY=1;exitDx=0;exitDy=0;entryX=0.175;entryY=0.25;entryDx=0;entryDy=0;entryPerimeter=0;" edge="1" parent="xEfdTOnW5aqnIUiHK3hS-1" source="EQuZEqetHIDUBt2iD832-5" target="DG8PfcGv6j1Ny0go0JBR-11">
          <mxGeometry width="50" height="50" relative="1" as="geometry">
            <mxPoint x="1830" y="362" as="sourcePoint" />
            <mxPoint x="1830" y="472" as="targetPoint" />
            <Array as="points">
              <mxPoint x="1530" y="592" />
            </Array>
          </mxGeometry>
        </mxCell>
        <mxCell id="DG8PfcGv6j1Ny0go0JBR-8" value="" style="endArrow=classic;html=1;rounded=0;fontSize=15;exitX=0.75;exitY=1;exitDx=0;exitDy=0;entryX=0.175;entryY=0.75;entryDx=0;entryDy=0;entryPerimeter=0;" edge="1" parent="xEfdTOnW5aqnIUiHK3hS-1" source="EQuZEqetHIDUBt2iD832-6" target="DG8PfcGv6j1Ny0go0JBR-11">
          <mxGeometry width="50" height="50" relative="1" as="geometry">
            <mxPoint x="1830" y="362" as="sourcePoint" />
            <mxPoint x="1830" y="502" as="targetPoint" />
            <Array as="points">
              <mxPoint x="1740" y="630" />
            </Array>
          </mxGeometry>
        </mxCell>
        <mxCell id="DG8PfcGv6j1Ny0go0JBR-11" value="" style="shape=xor;whiteSpace=wrap;html=1;fontSize=15;" vertex="1" parent="xEfdTOnW5aqnIUiHK3hS-1">
          <mxGeometry x="1840" y="575" width="60" height="73" as="geometry" />
        </mxCell>
        <mxCell id="DG8PfcGv6j1Ny0go0JBR-12" value="" style="endArrow=classic;html=1;rounded=0;fontSize=15;entryX=0.75;entryY=1;entryDx=0;entryDy=0;exitX=1;exitY=0.5;exitDx=0;exitDy=0;exitPerimeter=0;" edge="1" parent="xEfdTOnW5aqnIUiHK3hS-1" source="DG8PfcGv6j1Ny0go0JBR-11" target="EQuZEqetHIDUBt2iD832-4">
          <mxGeometry width="50" height="50" relative="1" as="geometry">
            <mxPoint x="1830" y="362" as="sourcePoint" />
            <mxPoint x="1880" y="312" as="targetPoint" />
            <Array as="points">
              <mxPoint x="2000" y="612" />
            </Array>
          </mxGeometry>
        </mxCell>
        <mxCell id="DG8PfcGv6j1Ny0go0JBR-13" value="" style="endArrow=classic;html=1;rounded=0;fontSize=15;exitX=1;exitY=0.5;exitDx=0;exitDy=0;exitPerimeter=0;" edge="1" parent="xEfdTOnW5aqnIUiHK3hS-1" source="DG8PfcGv6j1Ny0go0JBR-11">
          <mxGeometry width="50" height="50" relative="1" as="geometry">
            <mxPoint x="1830" y="485" as="sourcePoint" />
            <mxPoint x="2060" y="612" as="targetPoint" />
          </mxGeometry>
        </mxCell>
        <mxCell id="DG8PfcGv6j1Ny0go0JBR-15" value="" style="endArrow=classic;html=1;rounded=0;fontSize=15;entryX=0.25;entryY=0;entryDx=0;entryDy=0;exitX=0.25;exitY=1;exitDx=0;exitDy=0;" edge="1" parent="xEfdTOnW5aqnIUiHK3hS-1" source="k09RYwK2ea91Q8oCJMEr-0" target="EQuZEqetHIDUBt2iD832-5">
          <mxGeometry width="50" height="50" relative="1" as="geometry">
            <mxPoint x="1830" y="362" as="sourcePoint" />
            <mxPoint x="1880" y="312" as="targetPoint" />
            <Array as="points">
              <mxPoint x="1540" y="282" />
              <mxPoint x="1470" y="282" />
            </Array>
          </mxGeometry>
        </mxCell>
        <mxCell id="DG8PfcGv6j1Ny0go0JBR-16" value="" style="endArrow=classic;html=1;rounded=0;fontSize=15;entryX=0.25;entryY=0;entryDx=0;entryDy=0;startArrow=oval;startFill=1;" edge="1" parent="xEfdTOnW5aqnIUiHK3hS-1" target="EQuZEqetHIDUBt2iD832-6">
          <mxGeometry width="50" height="50" relative="1" as="geometry">
            <mxPoint x="1540" y="282" as="sourcePoint" />
            <mxPoint x="1880" y="312" as="targetPoint" />
            <Array as="points">
              <mxPoint x="1540" y="282" />
              <mxPoint x="1680" y="282" />
            </Array>
          </mxGeometry>
        </mxCell>
        <mxCell id="DG8PfcGv6j1Ny0go0JBR-17" value="" style="endArrow=classic;html=1;rounded=0;fontSize=15;entryX=0.5;entryY=0;entryDx=0;entryDy=0;startArrow=oval;startFill=1;" edge="1" parent="xEfdTOnW5aqnIUiHK3hS-1" target="EQuZEqetHIDUBt2iD832-5">
          <mxGeometry width="50" height="50" relative="1" as="geometry">
            <mxPoint x="1500" y="262" as="sourcePoint" />
            <mxPoint x="1880" y="312" as="targetPoint" />
            <Array as="points">
              <mxPoint x="1500" y="262" />
            </Array>
          </mxGeometry>
        </mxCell>
        <mxCell id="DG8PfcGv6j1Ny0go0JBR-18" value="" style="endArrow=classic;html=1;rounded=0;fontSize=15;entryX=0.5;entryY=0;entryDx=0;entryDy=0;startArrow=oval;startFill=1;" edge="1" parent="xEfdTOnW5aqnIUiHK3hS-1" target="EQuZEqetHIDUBt2iD832-6">
          <mxGeometry width="50" height="50" relative="1" as="geometry">
            <mxPoint x="1610" y="262" as="sourcePoint" />
            <mxPoint x="1830" y="272" as="targetPoint" />
            <Array as="points">
              <mxPoint x="1610" y="262" />
              <mxPoint x="1710" y="262" />
            </Array>
          </mxGeometry>
        </mxCell>
        <mxCell id="DG8PfcGv6j1Ny0go0JBR-19" value="" style="endArrow=classic;html=1;rounded=0;fontSize=15;exitX=0.75;exitY=1;exitDx=0;exitDy=0;entryX=0.75;entryY=0;entryDx=0;entryDy=0;" edge="1" parent="xEfdTOnW5aqnIUiHK3hS-1" source="k09RYwK2ea91Q8oCJMEr-0" target="EQuZEqetHIDUBt2iD832-5">
          <mxGeometry width="50" height="50" relative="1" as="geometry">
            <mxPoint x="1830" y="362" as="sourcePoint" />
            <mxPoint x="1880" y="312" as="targetPoint" />
            <Array as="points">
              <mxPoint x="1680" y="242" />
              <mxPoint x="1530" y="242" />
            </Array>
          </mxGeometry>
        </mxCell>
        <mxCell id="DG8PfcGv6j1Ny0go0JBR-20" value="" style="endArrow=classic;html=1;rounded=0;fontSize=15;entryX=0.75;entryY=0;entryDx=0;entryDy=0;startArrow=oval;startFill=1;" edge="1" parent="xEfdTOnW5aqnIUiHK3hS-1" target="EQuZEqetHIDUBt2iD832-6">
          <mxGeometry width="50" height="50" relative="1" as="geometry">
            <mxPoint x="1680" y="242" as="sourcePoint" />
            <mxPoint x="1880" y="312" as="targetPoint" />
            <Array as="points">
              <mxPoint x="1680" y="242" />
              <mxPoint x="1740" y="242" />
            </Array>
          </mxGeometry>
        </mxCell>
        <mxCell id="DG8PfcGv6j1Ny0go0JBR-21" value="" style="endArrow=classic;html=1;rounded=0;fontSize=15;entryX=1;entryY=0.25;entryDx=0;entryDy=0;startArrow=oval;startFill=1;" edge="1" parent="xEfdTOnW5aqnIUiHK3hS-1" target="EQuZEqetHIDUBt2iD832-7">
          <mxGeometry width="50" height="50" relative="1" as="geometry">
            <mxPoint x="1768" y="593" as="sourcePoint" />
            <mxPoint x="1880" y="435" as="targetPoint" />
            <Array as="points">
              <mxPoint x="1768" y="668" />
            </Array>
          </mxGeometry>
        </mxCell>
        <mxCell id="DG8PfcGv6j1Ny0go0JBR-22" value="" style="endArrow=classic;html=1;rounded=0;fontSize=15;entryX=1;entryY=0.75;entryDx=0;entryDy=0;startArrow=oval;startFill=1;" edge="1" parent="xEfdTOnW5aqnIUiHK3hS-1" target="EQuZEqetHIDUBt2iD832-7">
          <mxGeometry width="50" height="50" relative="1" as="geometry">
            <mxPoint x="1800" y="629" as="sourcePoint" />
            <mxPoint x="1880" y="435" as="targetPoint" />
            <Array as="points">
              <mxPoint x="1800" y="698" />
            </Array>
          </mxGeometry>
        </mxCell>
        <mxCell id="DG8PfcGv6j1Ny0go0JBR-23" value="" style="endArrow=classic;html=1;rounded=0;fontSize=15;entryX=0;entryY=0.5;entryDx=0;entryDy=0;exitX=0.5;exitY=0;exitDx=0;exitDy=0;" edge="1" parent="xEfdTOnW5aqnIUiHK3hS-1" source="pPYU0-96aMPWUQI4x70C-6" target="EQuZEqetHIDUBt2iD832-7">
          <mxGeometry width="50" height="50" relative="1" as="geometry">
            <mxPoint x="1610" y="209" as="sourcePoint" />
            <mxPoint x="1757" y="338" as="targetPoint" />
            <Array as="points">
              <mxPoint x="1610" y="262" />
              <mxPoint x="1330" y="262" />
              <mxPoint x="1330" y="682" />
            </Array>
          </mxGeometry>
        </mxCell>
        <mxCell id="DG8PfcGv6j1Ny0go0JBR-24" value="tag" style="text;html=1;strokeColor=none;fillColor=none;align=center;verticalAlign=middle;whiteSpace=wrap;rounded=0;fontSize=15;" vertex="1" parent="xEfdTOnW5aqnIUiHK3hS-1">
          <mxGeometry x="1505" y="215" width="30" height="12" as="geometry" />
        </mxCell>
        <mxCell id="DG8PfcGv6j1Ny0go0JBR-25" value="index" style="text;html=1;strokeColor=none;fillColor=none;align=center;verticalAlign=middle;whiteSpace=wrap;rounded=0;fontSize=15;" vertex="1" parent="xEfdTOnW5aqnIUiHK3hS-1">
          <mxGeometry x="1570" y="215" width="30" height="12" as="geometry" />
        </mxCell>
        <mxCell id="DG8PfcGv6j1Ny0go0JBR-26" value="blkset" style="text;html=1;strokeColor=none;fillColor=none;align=center;verticalAlign=middle;whiteSpace=wrap;rounded=0;fontSize=15;" vertex="1" parent="xEfdTOnW5aqnIUiHK3hS-1">
          <mxGeometry x="1640" y="215" width="30" height="12" as="geometry" />
        </mxCell>
        <mxCell id="ltSO0W6Xo73tTstEGfrn-0" value="hit0" style="text;html=1;strokeColor=none;fillColor=none;align=center;verticalAlign=middle;whiteSpace=wrap;rounded=0;fontSize=15;" vertex="1" parent="xEfdTOnW5aqnIUiHK3hS-1">
          <mxGeometry x="1810" y="575" width="30" height="12" as="geometry" />
        </mxCell>
        <mxCell id="ltSO0W6Xo73tTstEGfrn-1" value="hit1" style="text;html=1;strokeColor=none;fillColor=none;align=center;verticalAlign=middle;whiteSpace=wrap;rounded=0;fontSize=15;" vertex="1" parent="xEfdTOnW5aqnIUiHK3hS-1">
          <mxGeometry x="1810" y="613" width="30" height="12" as="geometry" />
        </mxCell>
        <mxCell id="ltSO0W6Xo73tTstEGfrn-6" value="" style="endArrow=classic;html=1;rounded=0;fontSize=15;exitX=0.5;exitY=0;exitDx=0;exitDy=0;entryX=0.5;entryY=1;entryDx=0;entryDy=0;" edge="1" parent="xEfdTOnW5aqnIUiHK3hS-1" source="EQuZEqetHIDUBt2iD832-4" target="ltSO0W6Xo73tTstEGfrn-7">
          <mxGeometry width="50" height="50" relative="1" as="geometry">
            <mxPoint x="1760" y="412" as="sourcePoint" />
            <mxPoint x="1970" y="202" as="targetPoint" />
          </mxGeometry>
        </mxCell>
        <mxCell id="ltSO0W6Xo73tTstEGfrn-7" value="ccif.daddr" style="text;html=1;strokeColor=none;fillColor=none;align=center;verticalAlign=middle;whiteSpace=wrap;rounded=0;fontSize=15;" vertex="1" parent="xEfdTOnW5aqnIUiHK3hS-1">
          <mxGeometry x="1940" y="20" width="60" height="30" as="geometry" />
        </mxCell>
        <mxCell id="ltSO0W6Xo73tTstEGfrn-10" value="" style="endArrow=classic;html=1;rounded=0;fontSize=15;entryX=0;entryY=0.25;entryDx=0;entryDy=0;" edge="1" parent="xEfdTOnW5aqnIUiHK3hS-1" target="EQuZEqetHIDUBt2iD832-5">
          <mxGeometry width="50" height="50" relative="1" as="geometry">
            <mxPoint x="1250" y="321" as="sourcePoint" />
            <mxPoint x="1640" y="382" as="targetPoint" />
          </mxGeometry>
        </mxCell>
        <mxCell id="ltSO0W6Xo73tTstEGfrn-11" value="dpcif.dmemREN&lt;br&gt;dpcif.dmemWEN&lt;br&gt;dpcif.dmemstore&lt;br&gt;ccif.dload" style="text;html=1;strokeColor=none;fillColor=none;align=center;verticalAlign=middle;whiteSpace=wrap;rounded=0;fontSize=15;" vertex="1" parent="xEfdTOnW5aqnIUiHK3hS-1">
          <mxGeometry x="1140" y="310" width="60" height="30" as="geometry" />
        </mxCell>
        <mxCell id="ltSO0W6Xo73tTstEGfrn-13" value="" style="endArrow=classic;html=1;rounded=0;fontSize=15;entryX=0;entryY=0.25;entryDx=0;entryDy=0;startArrow=oval;startFill=1;" edge="1" parent="xEfdTOnW5aqnIUiHK3hS-1" target="EQuZEqetHIDUBt2iD832-6">
          <mxGeometry width="50" height="50" relative="1" as="geometry">
            <mxPoint x="1390" y="322" as="sourcePoint" />
            <mxPoint x="1700" y="332" as="targetPoint" />
            <Array as="points">
              <mxPoint x="1390" y="392" />
              <mxPoint x="1600" y="392" />
              <mxPoint x="1600" y="321" />
            </Array>
          </mxGeometry>
        </mxCell>
        <mxCell id="ltSO0W6Xo73tTstEGfrn-14" value="" style="endArrow=classic;html=1;rounded=0;fontSize=15;entryX=0.75;entryY=0;entryDx=0;entryDy=0;" edge="1" parent="xEfdTOnW5aqnIUiHK3hS-1" target="EQuZEqetHIDUBt2iD832-4">
          <mxGeometry width="50" height="50" relative="1" as="geometry">
            <mxPoint x="2000" y="90" as="sourcePoint" />
            <mxPoint x="1900" y="372" as="targetPoint" />
          </mxGeometry>
        </mxCell>
        <mxCell id="ltSO0W6Xo73tTstEGfrn-15" value="ccif.dwait" style="text;html=1;strokeColor=none;fillColor=none;align=center;verticalAlign=middle;whiteSpace=wrap;rounded=0;fontSize=15;" vertex="1" parent="xEfdTOnW5aqnIUiHK3hS-1">
          <mxGeometry x="1990" y="50" width="60" height="30" as="geometry" />
        </mxCell>
        <mxCell id="ltSO0W6Xo73tTstEGfrn-16" value="" style="shape=trapezoid;perimeter=trapezoidPerimeter;whiteSpace=wrap;html=1;fixedSize=1;fontSize=15;rotation=90;" vertex="1" parent="xEfdTOnW5aqnIUiHK3hS-1">
          <mxGeometry x="1739" y="762" width="90" height="27.5" as="geometry" />
        </mxCell>
        <mxCell id="ltSO0W6Xo73tTstEGfrn-17" value="" style="endArrow=classic;html=1;rounded=0;fontSize=15;entryX=0;entryY=0.5;entryDx=0;entryDy=0;startArrow=oval;startFill=1;" edge="1" parent="xEfdTOnW5aqnIUiHK3hS-1" target="ltSO0W6Xo73tTstEGfrn-16">
          <mxGeometry width="50" height="50" relative="1" as="geometry">
            <mxPoint x="1784" y="629" as="sourcePoint" />
            <mxPoint x="1760" y="452" as="targetPoint" />
          </mxGeometry>
        </mxCell>
        <mxCell id="ltSO0W6Xo73tTstEGfrn-19" value="" style="endArrow=classic;html=1;rounded=0;fontSize=15;exitX=0.5;exitY=1;exitDx=0;exitDy=0;entryX=0.75;entryY=1;entryDx=0;entryDy=0;" edge="1" parent="xEfdTOnW5aqnIUiHK3hS-1" source="EQuZEqetHIDUBt2iD832-6" target="ltSO0W6Xo73tTstEGfrn-16">
          <mxGeometry width="50" height="50" relative="1" as="geometry">
            <mxPoint x="1740" y="642" as="sourcePoint" />
            <mxPoint x="1790" y="592" as="targetPoint" />
            <Array as="points">
              <mxPoint x="1710" y="798" />
            </Array>
          </mxGeometry>
        </mxCell>
        <mxCell id="ltSO0W6Xo73tTstEGfrn-20" value="dpcif.dhit" style="text;html=1;strokeColor=none;fillColor=none;align=center;verticalAlign=middle;whiteSpace=wrap;rounded=0;fontSize=15;" vertex="1" parent="xEfdTOnW5aqnIUiHK3hS-1">
          <mxGeometry x="2070" y="596.5" width="60" height="30" as="geometry" />
        </mxCell>
        <mxCell id="ltSO0W6Xo73tTstEGfrn-21" value="" style="endArrow=classic;html=1;rounded=0;fontSize=15;exitX=0.5;exitY=0;exitDx=0;exitDy=0;" edge="1" parent="xEfdTOnW5aqnIUiHK3hS-1" source="ltSO0W6Xo73tTstEGfrn-16">
          <mxGeometry width="50" height="50" relative="1" as="geometry">
            <mxPoint x="1910" y="642" as="sourcePoint" />
            <mxPoint x="2060" y="776" as="targetPoint" />
          </mxGeometry>
        </mxCell>
        <mxCell id="ltSO0W6Xo73tTstEGfrn-22" value="dpcif.dmemload" style="text;html=1;strokeColor=none;fillColor=none;align=center;verticalAlign=middle;whiteSpace=wrap;rounded=0;fontSize=15;" vertex="1" parent="xEfdTOnW5aqnIUiHK3hS-1">
          <mxGeometry x="2090" y="760.75" width="60" height="30" as="geometry" />
        </mxCell>
        <mxCell id="ltSO0W6Xo73tTstEGfrn-23" value="" style="endArrow=classic;html=1;rounded=0;fontSize=15;entryX=0.25;entryY=1;entryDx=0;entryDy=0;exitX=0.5;exitY=1;exitDx=0;exitDy=0;" edge="1" parent="xEfdTOnW5aqnIUiHK3hS-1" source="EQuZEqetHIDUBt2iD832-5" target="ltSO0W6Xo73tTstEGfrn-16">
          <mxGeometry width="50" height="50" relative="1" as="geometry">
            <mxPoint x="1670" y="582" as="sourcePoint" />
            <mxPoint x="1720" y="532" as="targetPoint" />
            <Array as="points">
              <mxPoint x="1500" y="752" />
            </Array>
          </mxGeometry>
        </mxCell>
        <mxCell id="ltSO0W6Xo73tTstEGfrn-25" value="IDLE&lt;br&gt;[idle = 1]" style="ellipse;whiteSpace=wrap;html=1;aspect=fixed;" vertex="1" parent="xEfdTOnW5aqnIUiHK3hS-1">
          <mxGeometry x="525" y="80" width="160" height="160" as="geometry" />
        </mxCell>
        <mxCell id="ltSO0W6Xo73tTstEGfrn-26" value="" style="endArrow=classic;html=1;rounded=0;fontSize=15;exitX=1;exitY=0.25;exitDx=0;exitDy=0;" edge="1" parent="xEfdTOnW5aqnIUiHK3hS-1" source="EQuZEqetHIDUBt2iD832-4">
          <mxGeometry width="50" height="50" relative="1" as="geometry">
            <mxPoint x="1530" y="502" as="sourcePoint" />
            <mxPoint x="2080" y="327" as="targetPoint" />
          </mxGeometry>
        </mxCell>
        <mxCell id="ltSO0W6Xo73tTstEGfrn-27" value="" style="endArrow=classic;html=1;rounded=0;fontSize=15;exitX=1;exitY=0.75;exitDx=0;exitDy=0;" edge="1" parent="xEfdTOnW5aqnIUiHK3hS-1" source="EQuZEqetHIDUBt2iD832-4">
          <mxGeometry width="50" height="50" relative="1" as="geometry">
            <mxPoint x="1720" y="502" as="sourcePoint" />
            <mxPoint x="2080" y="357" as="targetPoint" />
          </mxGeometry>
        </mxCell>
        <mxCell id="ltSO0W6Xo73tTstEGfrn-28" value="ccif.dREN" style="text;html=1;strokeColor=none;fillColor=none;align=center;verticalAlign=middle;whiteSpace=wrap;rounded=0;fontSize=15;" vertex="1" parent="xEfdTOnW5aqnIUiHK3hS-1">
          <mxGeometry x="2090" y="310" width="60" height="30" as="geometry" />
        </mxCell>
        <mxCell id="ltSO0W6Xo73tTstEGfrn-29" value="ccif.dWEN" style="text;html=1;strokeColor=none;fillColor=none;align=center;verticalAlign=middle;whiteSpace=wrap;rounded=0;fontSize=15;" vertex="1" parent="xEfdTOnW5aqnIUiHK3hS-1">
          <mxGeometry x="2090" y="342" width="60" height="30" as="geometry" />
        </mxCell>
        <mxCell id="ltSO0W6Xo73tTstEGfrn-31" value="" style="endArrow=classic;html=1;rounded=0;fontSize=15;exitX=0.25;exitY=0;exitDx=0;exitDy=0;" edge="1" parent="xEfdTOnW5aqnIUiHK3hS-1" source="EQuZEqetHIDUBt2iD832-4">
          <mxGeometry width="50" height="50" relative="1" as="geometry">
            <mxPoint x="1730" y="492" as="sourcePoint" />
            <mxPoint x="1940" y="90" as="targetPoint" />
          </mxGeometry>
        </mxCell>
        <mxCell id="ltSO0W6Xo73tTstEGfrn-32" value="ccif.dstore" style="text;html=1;strokeColor=none;fillColor=none;align=center;verticalAlign=middle;whiteSpace=wrap;rounded=0;fontSize=15;" vertex="1" parent="xEfdTOnW5aqnIUiHK3hS-1">
          <mxGeometry x="1900" y="50" width="60" height="30" as="geometry" />
        </mxCell>
        <mxCell id="ltSO0W6Xo73tTstEGfrn-33" value="" style="endArrow=classic;html=1;rounded=0;fontSize=15;exitX=1;exitY=1;exitDx=0;exitDy=0;entryX=0;entryY=0.75;entryDx=0;entryDy=0;" edge="1" parent="xEfdTOnW5aqnIUiHK3hS-1" source="EQuZEqetHIDUBt2iD832-5" target="EQuZEqetHIDUBt2iD832-4">
          <mxGeometry width="50" height="50" relative="1" as="geometry">
            <mxPoint x="1810" y="372" as="sourcePoint" />
            <mxPoint x="1860" y="322" as="targetPoint" />
            <Array as="points">
              <mxPoint x="1560" y="432" />
              <mxPoint x="1790" y="432" />
              <mxPoint x="1790" y="357" />
            </Array>
          </mxGeometry>
        </mxCell>
        <mxCell id="ltSO0W6Xo73tTstEGfrn-34" value="" style="endArrow=classic;html=1;rounded=0;fontSize=15;exitX=1.018;exitY=0.352;exitDx=0;exitDy=0;exitPerimeter=0;entryX=0;entryY=0.25;entryDx=0;entryDy=0;" edge="1" parent="xEfdTOnW5aqnIUiHK3hS-1" source="EQuZEqetHIDUBt2iD832-6" target="EQuZEqetHIDUBt2iD832-4">
          <mxGeometry width="50" height="50" relative="1" as="geometry">
            <mxPoint x="1810" y="372" as="sourcePoint" />
            <mxPoint x="1860" y="322" as="targetPoint" />
          </mxGeometry>
        </mxCell>
        <mxCell id="ltSO0W6Xo73tTstEGfrn-36" value="block(0/1)&lt;br&gt;tag(0/1)&lt;br&gt;dirty(0/1)" style="text;html=1;align=center;verticalAlign=middle;whiteSpace=wrap;rounded=0;fontSize=15;fillColor=default;strokeColor=none;" vertex="1" parent="xEfdTOnW5aqnIUiHK3hS-1">
          <mxGeometry x="1800" y="292" width="90" height="88" as="geometry" />
        </mxCell>
        <mxCell id="ltSO0W6Xo73tTstEGfrn-38" value="" style="endArrow=classic;html=1;rounded=0;fontSize=15;entryX=0;entryY=0.5;entryDx=0;entryDy=0;exitX=0.5;exitY=0;exitDx=0;exitDy=0;" edge="1" parent="xEfdTOnW5aqnIUiHK3hS-1" source="pPYU0-96aMPWUQI4x70C-20" target="EQuZEqetHIDUBt2iD832-5">
          <mxGeometry width="50" height="50" relative="1" as="geometry">
            <mxPoint x="1720" y="462" as="sourcePoint" />
            <mxPoint x="1770" y="412" as="targetPoint" />
            <Array as="points">
              <mxPoint x="1420" y="336" />
            </Array>
          </mxGeometry>
        </mxCell>
        <mxCell id="ltSO0W6Xo73tTstEGfrn-39" value="" style="endArrow=classic;html=1;rounded=0;fontSize=15;entryX=0;entryY=0.5;entryDx=0;entryDy=0;startArrow=oval;startFill=1;" edge="1" parent="xEfdTOnW5aqnIUiHK3hS-1" target="EQuZEqetHIDUBt2iD832-6">
          <mxGeometry width="50" height="50" relative="1" as="geometry">
            <mxPoint x="1421" y="402" as="sourcePoint" />
            <mxPoint x="1838" y="298" as="targetPoint" />
            <Array as="points">
              <mxPoint x="1614" y="402" />
              <mxPoint x="1614" y="336" />
            </Array>
          </mxGeometry>
        </mxCell>
        <mxCell id="ltSO0W6Xo73tTstEGfrn-40" value="" style="endArrow=classic;html=1;rounded=0;fontSize=15;entryX=0.25;entryY=1;entryDx=0;entryDy=0;exitX=0.25;exitY=1;exitDx=0;exitDy=0;" edge="1" parent="xEfdTOnW5aqnIUiHK3hS-1" source="EQuZEqetHIDUBt2iD832-4" target="EQuZEqetHIDUBt2iD832-5">
          <mxGeometry width="50" height="50" relative="1" as="geometry">
            <mxPoint x="1815" y="405" as="sourcePoint" />
            <mxPoint x="1865" y="355" as="targetPoint" />
            <Array as="points">
              <mxPoint x="1940" y="503" />
              <mxPoint x="1470" y="503" />
            </Array>
          </mxGeometry>
        </mxCell>
        <mxCell id="ltSO0W6Xo73tTstEGfrn-41" value="" style="endArrow=classic;html=1;rounded=0;fontSize=15;entryX=0.25;entryY=1;entryDx=0;entryDy=0;startArrow=oval;startFill=1;" edge="1" parent="xEfdTOnW5aqnIUiHK3hS-1" target="EQuZEqetHIDUBt2iD832-6">
          <mxGeometry width="50" height="50" relative="1" as="geometry">
            <mxPoint x="1680" y="502" as="sourcePoint" />
            <mxPoint x="1870" y="352" as="targetPoint" />
          </mxGeometry>
        </mxCell>
        <mxCell id="ltSO0W6Xo73tTstEGfrn-44" value="" style="endArrow=classic;html=1;rounded=0;fontSize=15;entryX=0.5;entryY=1;entryDx=0;entryDy=0;startArrow=oval;startFill=1;" edge="1" parent="xEfdTOnW5aqnIUiHK3hS-1" target="EQuZEqetHIDUBt2iD832-4">
          <mxGeometry width="50" height="50" relative="1" as="geometry">
            <mxPoint x="1420" y="542" as="sourcePoint" />
            <mxPoint x="1490" y="352" as="targetPoint" />
            <Array as="points">
              <mxPoint x="1970" y="542" />
            </Array>
          </mxGeometry>
        </mxCell>
        <mxCell id="CZDEpdQAJwVcUK48Smp7-0" value="counter" style="rounded=0;whiteSpace=wrap;html=1;fontSize=15;strokeColor=default;fillColor=default;" vertex="1" parent="xEfdTOnW5aqnIUiHK3hS-1">
          <mxGeometry x="1910" y="662" width="120" height="60" as="geometry" />
        </mxCell>
        <mxCell id="CZDEpdQAJwVcUK48Smp7-1" value="" style="endArrow=classic;html=1;rounded=0;fontSize=15;exitX=1;exitY=0.5;exitDx=0;exitDy=0;" edge="1" parent="xEfdTOnW5aqnIUiHK3hS-1" source="CZDEpdQAJwVcUK48Smp7-0">
          <mxGeometry width="50" height="50" relative="1" as="geometry">
            <mxPoint x="1710" y="542" as="sourcePoint" />
            <mxPoint x="2060" y="692" as="targetPoint" />
          </mxGeometry>
        </mxCell>
        <mxCell id="CZDEpdQAJwVcUK48Smp7-2" value="hit count" style="text;html=1;strokeColor=none;fillColor=none;align=center;verticalAlign=middle;whiteSpace=wrap;rounded=0;fontSize=15;" vertex="1" parent="xEfdTOnW5aqnIUiHK3hS-1">
          <mxGeometry x="2060" y="677" width="80" height="30" as="geometry" />
        </mxCell>
        <mxCell id="CZDEpdQAJwVcUK48Smp7-3" value="" style="endArrow=classic;html=1;rounded=0;fontSize=15;entryX=0.75;entryY=0;entryDx=0;entryDy=0;startArrow=oval;startFill=1;" edge="1" parent="xEfdTOnW5aqnIUiHK3hS-1" target="CZDEpdQAJwVcUK48Smp7-0">
          <mxGeometry width="50" height="50" relative="1" as="geometry">
            <mxPoint x="2000" y="612" as="sourcePoint" />
            <mxPoint x="1760" y="482" as="targetPoint" />
          </mxGeometry>
        </mxCell>
        <mxCell id="CZDEpdQAJwVcUK48Smp7-5" value="" style="endArrow=classic;html=1;rounded=0;fontSize=15;entryX=0.25;entryY=0;entryDx=0;entryDy=0;startArrow=oval;startFill=1;" edge="1" parent="xEfdTOnW5aqnIUiHK3hS-1" target="CZDEpdQAJwVcUK48Smp7-0">
          <mxGeometry width="50" height="50" relative="1" as="geometry">
            <mxPoint x="1940" y="502" as="sourcePoint" />
            <mxPoint x="1760" y="472" as="targetPoint" />
          </mxGeometry>
        </mxCell>
        <mxCell id="ltSO0W6Xo73tTstEGfrn-42" value="mh_en&lt;br&gt;write_offset&lt;br&gt;load_data&lt;br&gt;set_valid&lt;br&gt;clear_dirty&lt;br&gt;write_tag&lt;br&gt;decr_counter" style="text;html=1;align=center;verticalAlign=middle;whiteSpace=wrap;rounded=0;fontSize=15;fillColor=default;strokeColor=none;" vertex="1" parent="xEfdTOnW5aqnIUiHK3hS-1">
          <mxGeometry x="1860" y="385" width="90" height="125" as="geometry" />
        </mxCell>
        <mxCell id="pPYU0-96aMPWUQI4x70C-0" value="Dirty Block Flusher" style="rounded=0;whiteSpace=wrap;html=1;fontSize=15;strokeColor=default;fillColor=default;" vertex="1" parent="xEfdTOnW5aqnIUiHK3hS-1">
          <mxGeometry x="1240" y="78.78" width="120" height="122.44" as="geometry" />
        </mxCell>
        <mxCell id="pPYU0-96aMPWUQI4x70C-1" value="" style="endArrow=classic;html=1;rounded=1;fontSize=15;entryX=0;entryY=0;entryDx=0;entryDy=0;exitX=0.5;exitY=0;exitDx=0;exitDy=0;" edge="1" parent="xEfdTOnW5aqnIUiHK3hS-1" source="ltSO0W6Xo73tTstEGfrn-25" target="ltSO0W6Xo73tTstEGfrn-25">
          <mxGeometry width="50" height="50" relative="1" as="geometry">
            <mxPoint x="720" y="440" as="sourcePoint" />
            <mxPoint x="770" y="390" as="targetPoint" />
            <Array as="points">
              <mxPoint x="560" y="70" />
            </Array>
          </mxGeometry>
        </mxCell>
        <mxCell id="pPYU0-96aMPWUQI4x70C-2" value="dhit" style="text;html=1;strokeColor=none;fillColor=none;align=center;verticalAlign=middle;whiteSpace=wrap;rounded=0;" vertex="1" parent="xEfdTOnW5aqnIUiHK3hS-1">
          <mxGeometry x="520" y="67.88" width="30" height="20" as="geometry" />
        </mxCell>
        <mxCell id="pPYU0-96aMPWUQI4x70C-3" value="" style="endArrow=classic;html=1;rounded=1;fontSize=15;exitX=0;exitY=0.5;exitDx=0;exitDy=0;entryX=0;entryY=0.5;entryDx=0;entryDy=0;" edge="1" parent="xEfdTOnW5aqnIUiHK3hS-1" source="xEfdTOnW5aqnIUiHK3hS-9" target="ltSO0W6Xo73tTstEGfrn-25">
          <mxGeometry width="50" height="50" relative="1" as="geometry">
            <mxPoint x="720" y="490" as="sourcePoint" />
            <mxPoint x="410" y="290" as="targetPoint" />
            <Array as="points">
              <mxPoint x="370" y="588" />
              <mxPoint x="370" y="160" />
            </Array>
          </mxGeometry>
        </mxCell>
        <mxCell id="pPYU0-96aMPWUQI4x70C-4" value="mh_en &amp;amp;&amp;amp; flush" style="text;html=1;strokeColor=none;fillColor=none;align=center;verticalAlign=middle;whiteSpace=wrap;rounded=0;" vertex="1" parent="xEfdTOnW5aqnIUiHK3hS-1">
          <mxGeometry x="470" y="550.88" width="40" height="30" as="geometry" />
        </mxCell>
        <mxCell id="pPYU0-96aMPWUQI4x70C-6" value="" style="shape=trapezoid;perimeter=trapezoidPerimeter;whiteSpace=wrap;html=1;fixedSize=1;fontSize=15;strokeColor=default;fillColor=default;rotation=-180;" vertex="1" parent="xEfdTOnW5aqnIUiHK3hS-1">
          <mxGeometry x="1555" y="157" width="110" height="28" as="geometry" />
        </mxCell>
        <mxCell id="pPYU0-96aMPWUQI4x70C-7" value="" style="endArrow=classic;html=1;rounded=0;fontSize=15;exitX=0.5;exitY=1;exitDx=0;exitDy=0;entryX=0.25;entryY=1;entryDx=0;entryDy=0;" edge="1" parent="xEfdTOnW5aqnIUiHK3hS-1" source="k09RYwK2ea91Q8oCJMEr-0" target="pPYU0-96aMPWUQI4x70C-6">
          <mxGeometry width="50" height="50" relative="1" as="geometry">
            <mxPoint x="1650" y="520" as="sourcePoint" />
            <mxPoint x="1480" y="200" as="targetPoint" />
            <Array as="points">
              <mxPoint x="1610" y="130" />
              <mxPoint x="1638" y="130" />
            </Array>
          </mxGeometry>
        </mxCell>
        <mxCell id="pPYU0-96aMPWUQI4x70C-8" value="" style="endArrow=classic;html=1;rounded=0;fontSize=15;entryX=1;entryY=0.5;entryDx=0;entryDy=0;exitX=1;exitY=0.75;exitDx=0;exitDy=0;" edge="1" parent="xEfdTOnW5aqnIUiHK3hS-1" source="pPYU0-96aMPWUQI4x70C-0" target="pPYU0-96aMPWUQI4x70C-6">
          <mxGeometry width="50" height="50" relative="1" as="geometry">
            <mxPoint x="1650" y="520" as="sourcePoint" />
            <mxPoint x="1700" y="470" as="targetPoint" />
          </mxGeometry>
        </mxCell>
        <mxCell id="pPYU0-96aMPWUQI4x70C-9" value="" style="endArrow=classic;html=1;rounded=0;fontSize=15;exitX=1;exitY=0.5;exitDx=0;exitDy=0;entryX=0.75;entryY=1;entryDx=0;entryDy=0;" edge="1" parent="xEfdTOnW5aqnIUiHK3hS-1" source="pPYU0-96aMPWUQI4x70C-0" target="pPYU0-96aMPWUQI4x70C-6">
          <mxGeometry width="50" height="50" relative="1" as="geometry">
            <mxPoint x="1650" y="520" as="sourcePoint" />
            <mxPoint x="1700" y="470" as="targetPoint" />
            <Array as="points">
              <mxPoint x="1583" y="140" />
            </Array>
          </mxGeometry>
        </mxCell>
        <mxCell id="pPYU0-96aMPWUQI4x70C-10" value="flusher_index" style="text;html=1;strokeColor=none;fillColor=none;align=center;verticalAlign=middle;whiteSpace=wrap;rounded=0;fontSize=15;" vertex="1" parent="xEfdTOnW5aqnIUiHK3hS-1">
          <mxGeometry x="1390" y="107.88" width="60" height="30" as="geometry" />
        </mxCell>
        <mxCell id="pPYU0-96aMPWUQI4x70C-11" value="override_index" style="text;html=1;strokeColor=none;fillColor=none;align=center;verticalAlign=middle;whiteSpace=wrap;rounded=0;fontSize=15;" vertex="1" parent="xEfdTOnW5aqnIUiHK3hS-1">
          <mxGeometry x="1390" y="143" width="60" height="30" as="geometry" />
        </mxCell>
        <mxCell id="pPYU0-96aMPWUQI4x70C-12" value="" style="endArrow=classic;html=1;rounded=0;fontSize=15;entryX=0;entryY=0.5;entryDx=0;entryDy=0;" edge="1" parent="xEfdTOnW5aqnIUiHK3hS-1" target="pPYU0-96aMPWUQI4x70C-0">
          <mxGeometry width="50" height="50" relative="1" as="geometry">
            <mxPoint x="1200" y="140" as="sourcePoint" />
            <mxPoint x="1700" y="440" as="targetPoint" />
          </mxGeometry>
        </mxCell>
        <mxCell id="pPYU0-96aMPWUQI4x70C-13" value="dpcif.halt" style="text;html=1;strokeColor=none;fillColor=none;align=center;verticalAlign=middle;whiteSpace=wrap;rounded=0;fontSize=15;" vertex="1" parent="xEfdTOnW5aqnIUiHK3hS-1">
          <mxGeometry x="1130" y="125" width="60" height="30" as="geometry" />
        </mxCell>
        <mxCell id="pPYU0-96aMPWUQI4x70C-14" value="" style="endArrow=classic;html=1;rounded=0;fontSize=15;exitX=0.25;exitY=0;exitDx=0;exitDy=0;" edge="1" parent="xEfdTOnW5aqnIUiHK3hS-1" source="pPYU0-96aMPWUQI4x70C-0">
          <mxGeometry width="50" height="50" relative="1" as="geometry">
            <mxPoint x="1610" y="470" as="sourcePoint" />
            <mxPoint x="1270" y="50" as="targetPoint" />
          </mxGeometry>
        </mxCell>
        <mxCell id="pPYU0-96aMPWUQI4x70C-15" value="" style="endArrow=classic;html=1;rounded=0;fontSize=15;entryX=1;entryY=0;entryDx=0;entryDy=0;exitX=0.5;exitY=0;exitDx=0;exitDy=0;" edge="1" parent="xEfdTOnW5aqnIUiHK3hS-1" source="pPYU0-96aMPWUQI4x70C-0" target="EQuZEqetHIDUBt2iD832-4">
          <mxGeometry width="50" height="50" relative="1" as="geometry">
            <mxPoint x="1490" y="430" as="sourcePoint" />
            <mxPoint x="1540" y="380" as="targetPoint" />
            <Array as="points">
              <mxPoint x="1300" y="50" />
              <mxPoint x="1890" y="50" />
              <mxPoint x="1890" y="230" />
              <mxPoint x="2030" y="230" />
            </Array>
          </mxGeometry>
        </mxCell>
        <mxCell id="pPYU0-96aMPWUQI4x70C-16" value="flush" style="text;html=1;strokeColor=none;fillColor=none;align=center;verticalAlign=middle;whiteSpace=wrap;rounded=0;fontSize=15;" vertex="1" parent="xEfdTOnW5aqnIUiHK3hS-1">
          <mxGeometry x="2030" y="248" width="60" height="30" as="geometry" />
        </mxCell>
        <mxCell id="pPYU0-96aMPWUQI4x70C-17" value="" style="endArrow=classic;html=1;rounded=0;fontSize=15;entryX=0.75;entryY=0;entryDx=0;entryDy=0;exitX=0;exitY=0;exitDx=0;exitDy=0;" edge="1" parent="xEfdTOnW5aqnIUiHK3hS-1" source="EQuZEqetHIDUBt2iD832-4" target="pPYU0-96aMPWUQI4x70C-0">
          <mxGeometry width="50" height="50" relative="1" as="geometry">
            <mxPoint x="1490" y="430" as="sourcePoint" />
            <mxPoint x="1540" y="380" as="targetPoint" />
            <Array as="points">
              <mxPoint x="1910" y="240" />
              <mxPoint x="1880" y="240" />
              <mxPoint x="1880" y="60" />
              <mxPoint x="1330" y="60" />
            </Array>
          </mxGeometry>
        </mxCell>
        <mxCell id="pPYU0-96aMPWUQI4x70C-18" value="idle" style="text;html=1;strokeColor=none;fillColor=none;align=center;verticalAlign=middle;whiteSpace=wrap;rounded=0;fontSize=15;" vertex="1" parent="xEfdTOnW5aqnIUiHK3hS-1">
          <mxGeometry x="1850" y="253" width="60" height="30" as="geometry" />
        </mxCell>
        <mxCell id="pPYU0-96aMPWUQI4x70C-19" value="syif.halt" style="text;html=1;strokeColor=none;fillColor=none;align=center;verticalAlign=middle;whiteSpace=wrap;rounded=0;fontSize=15;" vertex="1" parent="xEfdTOnW5aqnIUiHK3hS-1">
          <mxGeometry x="1240" y="25" width="60" height="20" as="geometry" />
        </mxCell>
        <mxCell id="pPYU0-96aMPWUQI4x70C-20" value="" style="shape=trapezoid;perimeter=trapezoidPerimeter;whiteSpace=wrap;html=1;fixedSize=1;fontSize=15;strokeColor=default;fillColor=default;" vertex="1" parent="xEfdTOnW5aqnIUiHK3hS-1">
          <mxGeometry x="1360" y="580" width="120" height="34.5" as="geometry" />
        </mxCell>
        <mxCell id="pPYU0-96aMPWUQI4x70C-22" value="" style="endArrow=classic;html=1;rounded=0;fontSize=15;entryX=0.25;entryY=1;entryDx=0;entryDy=0;exitX=0.25;exitY=0;exitDx=0;exitDy=0;" edge="1" parent="xEfdTOnW5aqnIUiHK3hS-1" source="EQuZEqetHIDUBt2iD832-7" target="pPYU0-96aMPWUQI4x70C-20">
          <mxGeometry width="50" height="50" relative="1" as="geometry">
            <mxPoint x="1440" y="640" as="sourcePoint" />
            <mxPoint x="1550" y="320" as="targetPoint" />
          </mxGeometry>
        </mxCell>
        <mxCell id="pPYU0-96aMPWUQI4x70C-23" value="" style="endArrow=classic;html=1;rounded=0;fontSize=15;entryX=0;entryY=0.5;entryDx=0;entryDy=0;exitX=0.25;exitY=1;exitDx=0;exitDy=0;" edge="1" parent="xEfdTOnW5aqnIUiHK3hS-1" source="pPYU0-96aMPWUQI4x70C-0" target="pPYU0-96aMPWUQI4x70C-20">
          <mxGeometry width="50" height="50" relative="1" as="geometry">
            <mxPoint x="1500" y="370" as="sourcePoint" />
            <mxPoint x="1550" y="320" as="targetPoint" />
            <Array as="points">
              <mxPoint x="1270" y="597" />
            </Array>
          </mxGeometry>
        </mxCell>
        <mxCell id="pPYU0-96aMPWUQI4x70C-24" value="LRU_override" style="text;html=1;strokeColor=none;fillColor=none;align=center;verticalAlign=middle;whiteSpace=wrap;rounded=0;fontSize=15;" vertex="1" parent="xEfdTOnW5aqnIUiHK3hS-1">
          <mxGeometry x="1190" y="210" width="60" height="30" as="geometry" />
        </mxCell>
        <mxCell id="pPYU0-96aMPWUQI4x70C-25" value="" style="endArrow=classic;html=1;rounded=0;fontSize=15;exitX=0.5;exitY=1;exitDx=0;exitDy=0;entryX=0.75;entryY=1;entryDx=0;entryDy=0;" edge="1" parent="xEfdTOnW5aqnIUiHK3hS-1" source="pPYU0-96aMPWUQI4x70C-0" target="pPYU0-96aMPWUQI4x70C-20">
          <mxGeometry width="50" height="50" relative="1" as="geometry">
            <mxPoint x="1500" y="370" as="sourcePoint" />
            <mxPoint x="1180" y="590" as="targetPoint" />
            <Array as="points">
              <mxPoint x="1300" y="630" />
              <mxPoint x="1450" y="630" />
            </Array>
          </mxGeometry>
        </mxCell>
        <mxCell id="pPYU0-96aMPWUQI4x70C-26" value="flusher_LRU" style="text;html=1;strokeColor=none;fillColor=none;align=center;verticalAlign=middle;whiteSpace=wrap;rounded=0;fontSize=15;" vertex="1" parent="xEfdTOnW5aqnIUiHK3hS-1">
          <mxGeometry x="1330" y="210" width="60" height="30" as="geometry" />
        </mxCell>
        <mxCell id="pPYU0-96aMPWUQI4x70C-27" value="replace_num" style="text;html=1;strokeColor=none;fillColor=none;align=center;verticalAlign=middle;whiteSpace=wrap;rounded=0;fontSize=15;" vertex="1" parent="xEfdTOnW5aqnIUiHK3hS-1">
          <mxGeometry x="1390" y="550" width="60" height="30" as="geometry" />
        </mxCell>
      </root>
    </mxGraphModel>
  </diagram>
</mxfile>
